# xmcd
#
# Track frame offsets:
#	150
#	20924
#	36782
#	51645
#	67938
#	86183
#	104055
#	121128
#	139788
#	155117
#	172586
#	190942
#	207625
#	223473
#	238693
#	254663
#
# Disc length: 3642 seconds
#
# Revision: 0
# Processed by: cddbd v1.5.2PL0 Copyright (c) Steve Scherf et al.
# Submitted via: dBpowerAMP V4.0
#
DISCID=000e3810
DTITLE=Howard Carpendale - Star Edition
DYEAR=1900
DGENRE=
TTITLE0=dann geh`doch
TTITLE1=Mit viel,viel Herz
TTITLE2=Willkommen auf der Titanic
TTITLE3=Samstagnacht
TTITLE4=Hey, versuch`s noch mal mit mi
TTITLE5=Kein Typ für eine Nacht
TTITLE6=Ruf mich an
TTITLE7=Mit dir verschwend`ich meine Zeit
TTITLE8=Ti Amo
TTITLE9=Hello Again
TTITLE10=Wem  erzählst du nach mir deine Träume 
TTITLE11=Tür an Tür mit Alice
TTITLE12=Alles O.K
TTITLE13=Vielleicht niemals
TTITLE14=Nimm den nächsten Zug
TTITLE15=Du fängst den Wind niemals ein
EXTD=
EXTT0=
EXTT1=
EXTT2=
EXTT3=
EXTT4=
EXTT5=
EXTT6=
EXTT7=
EXTT8=
EXTT9=
EXTT10=
EXTT11=
EXTT12=
EXTT13=
EXTT14=
EXTT15=
PLAYORDER=
